<svg xmlns="http://www.w3.org/2000/svg" viewBox="0 0 2133 340" width="2133" height="340">
  <defs>
    <linearGradient id="g" x1="0" y1="0" x2="1" y2="1">
      <stop offset="0%" stop-color="#0F001A"/>
      <stop offset="40%" stop-color="#20003D"/>
      <stop offset="75%" stop-color="#300060"/>
      <stop offset="100%" stop-color="#3D0075"/>
    </linearGradient>
    <radialGradient id="gl1" cx="73%" cy="46%" r="40%">
      <stop offset="0%" stop-color="#9B59B6" stop-opacity="0.2"/>
      <stop offset="100%" stop-color="#0F001A" stop-opacity="0"/>
    </radialGradient>
    <radialGradient id="gl2" cx="17%" cy="57%" r="30%">
      <stop offset="0%" stop-color="#6A0DAD" stop-opacity="0.15"/>
      <stop offset="100%" stop-color="#0F001A" stop-opacity="0"/>
    </radialGradient>
  </defs>
  <rect width="2133" height="340" fill="url(#g)"/>
  <rect width="2133" height="340" fill="url(#gl1)"/>
  <rect width="2133" height="340" fill="url(#gl2)"/>
  <!-- Stars -->
  <circle cx="130" cy="38" r="2" fill="#DA70D6" opacity="0.5"/><circle cx="460" cy="24" r="2" fill="#FFD700" opacity="0.4"/><circle cx="870" cy="78" r="2" fill="#DA70D6" opacity="0.55"/><circle cx="1170" cy="65" r="2" fill="#FFD700" opacity="0.4"/><circle cx="1630" cy="28" r="2" fill="#DA70D6" opacity="0.5"/><circle cx="1880" cy="55" r="2" fill="#FFD700" opacity="0.45"/><circle cx="2040" cy="75" r="2" fill="#DA70D6" opacity="0.5"/>
  <circle cx="380" cy="185" r="2" fill="#DA70D6" opacity="0.3"/><circle cx="680" cy="205" r="2" fill="#FFD700" opacity="0.35"/><circle cx="980" cy="222" r="2" fill="#DA70D6" opacity="0.3"/><circle cx="1280" cy="242" r="2" fill="#FFD700" opacity="0.35"/>
  <circle cx="300" cy="72" r="1.5" fill="#FFD700" opacity="0.4"/><circle cx="730" cy="46" r="1.5" fill="#DA70D6" opacity="0.45"/><circle cx="1030" cy="32" r="1.5" fill="#FFD700" opacity="0.4"/><circle cx="1480" cy="82" r="1.5" fill="#DA70D6" opacity="0.35"/><circle cx="230" cy="260" r="1.5" fill="#FFD700" opacity="0.3"/><circle cx="530" cy="250" r="1.5" fill="#DA70D6" opacity="0.4"/><circle cx="830" cy="280" r="1.5" fill="#FFD700" opacity="0.3"/><circle cx="1730" cy="276" r="1.5" fill="#DA70D6" opacity="0.3"/>
  <circle cx="180" cy="118" r="1" fill="#DA70D6" opacity="0.35"/><circle cx="580" cy="158" r="1" fill="#FFD700" opacity="0.3"/><circle cx="1080" cy="158" r="1" fill="#DA70D6" opacity="0.3"/><circle cx="1580" cy="206" r="1" fill="#FFD700" opacity="0.3"/>
  <!-- Chat bubble 1 (left, large) -->
  <rect x="110" y="80" width="200" height="100" rx="16" ry="16" fill="none" stroke="#9B59B6" stroke-width="2" opacity="0.18"/>
  <polygon points="138,180 164,180 138,210" fill="none" stroke="#9B59B6" stroke-width="2" opacity="0.18"/>
  <!-- Dots inside bubble 1 -->
  <circle cx="175" cy="130" r="8" fill="#9B59B6" opacity="0.1"/>
  <circle cx="208" cy="130" r="8" fill="#9B59B6" opacity="0.1"/>
  <circle cx="241" cy="130" r="8" fill="#9B59B6" opacity="0.1"/>
  <!-- Chat bubble 2 (right of center, medium) -->
  <rect x="700" y="95" width="160" height="85" rx="14" ry="14" fill="none" stroke="#DA70D6" stroke-width="1.8" opacity="0.15"/>
  <polygon points="826,180 846,180 846,204" fill="none" stroke="#DA70D6" stroke-width="1.8" opacity="0.15"/>
  <!-- Chat bubble 3 (large right) -->
  <rect x="1700" y="75" width="230" height="110" rx="18" ry="18" fill="none" stroke="#9B59B6" stroke-width="2" opacity="0.18"/>
  <polygon points="1724,185 1754,185 1724,215" fill="none" stroke="#9B59B6" stroke-width="2" opacity="0.18"/>
  <!-- Dots inside bubble 3 -->
  <circle cx="1770" cy="130" r="9" fill="#9B59B6" opacity="0.1"/>
  <circle cx="1808" cy="130" r="9" fill="#9B59B6" opacity="0.1"/>
  <circle cx="1846" cy="130" r="9" fill="#9B59B6" opacity="0.1"/>
  <!-- Chat bubble 4 (small, far left) -->
  <rect x="80" y="210" width="120" height="62" rx="12" ry="12" fill="none" stroke="#DA70D6" stroke-width="1.5" opacity="0.14"/>
  <polygon points="164,272 180,272 180,290" fill="none" stroke="#DA70D6" stroke-width="1.5" opacity="0.14"/>
  <!-- Diamond accents -->
  <polygon points="500,165 512,149 524,165 512,181" fill="#9B59B6" opacity="0.25"/>
  <polygon points="1150,58 1158,48 1166,58 1158,68" fill="#6A0DAD" opacity="0.28"/>
  <polygon points="850,285 858,273 866,285 858,297" fill="#9B59B6" opacity="0.2"/>
  <polygon points="1480,292 1488,280 1496,292 1488,304" fill="#6A0DAD" opacity="0.18"/>
  <!-- Accent lines -->
  <line x1="0" y1="338" x2="2133" y2="338" stroke="#9B59B6" stroke-width="1.5" opacity="0.35"/>
  <line x1="0" y1="2" x2="2133" y2="2" stroke="#9B59B6" stroke-width="1" opacity="0.15"/>
</svg>
