<svg xmlns="http://www.w3.org/2000/svg" viewBox="0 0 2133 340" width="2133" height="340">
  <defs>
    <linearGradient id="g" x1="0" y1="0" x2="1" y2="1">
      <stop offset="0%" stop-color="#000D1A"/>
      <stop offset="40%" stop-color="#001B3D"/>
      <stop offset="75%" stop-color="#00285C"/>
      <stop offset="100%" stop-color="#003478"/>
    </linearGradient>
    <radialGradient id="gl1" cx="72%" cy="44%" r="42%">
      <stop offset="0%" stop-color="#4169E1" stop-opacity="0.2"/>
      <stop offset="100%" stop-color="#000D1A" stop-opacity="0"/>
    </radialGradient>
    <radialGradient id="gl2" cx="15%" cy="58%" r="28%">
      <stop offset="0%" stop-color="#1E90FF" stop-opacity="0.14"/>
      <stop offset="100%" stop-color="#000D1A" stop-opacity="0"/>
    </radialGradient>
  </defs>
  <rect width="2133" height="340" fill="url(#g)"/>
  <rect width="2133" height="340" fill="url(#gl1)"/>
  <rect width="2133" height="340" fill="url(#gl2)"/>
  <!-- Stars -->
  <circle cx="145" cy="38" r="2" fill="#87CEEB" opacity="0.5"/><circle cx="465" cy="22" r="2" fill="#FFD700" opacity="0.4"/><circle cx="875" cy="76" r="2" fill="#87CEEB" opacity="0.55"/><circle cx="1175" cy="65" r="2" fill="#FFD700" opacity="0.4"/><circle cx="1635" cy="26" r="2" fill="#87CEEB" opacity="0.5"/><circle cx="1885" cy="52" r="2" fill="#FFD700" opacity="0.45"/><circle cx="2045" cy="72" r="2" fill="#87CEEB" opacity="0.5"/>
  <circle cx="385" cy="183" r="2" fill="#87CEEB" opacity="0.3"/><circle cx="685" cy="202" r="2" fill="#FFD700" opacity="0.35"/><circle cx="985" cy="220" r="2" fill="#87CEEB" opacity="0.3"/><circle cx="1285" cy="240" r="2" fill="#FFD700" opacity="0.35"/>
  <circle cx="305" cy="70" r="1.5" fill="#FFD700" opacity="0.4"/><circle cx="735" cy="44" r="1.5" fill="#87CEEB" opacity="0.45"/><circle cx="1035" cy="30" r="1.5" fill="#FFD700" opacity="0.4"/><circle cx="1485" cy="80" r="1.5" fill="#87CEEB" opacity="0.35"/><circle cx="235" cy="258" r="1.5" fill="#FFD700" opacity="0.3"/><circle cx="535" cy="248" r="1.5" fill="#87CEEB" opacity="0.4"/><circle cx="835" cy="278" r="1.5" fill="#FFD700" opacity="0.3"/><circle cx="1735" cy="274" r="1.5" fill="#87CEEB" opacity="0.3"/>
  <circle cx="185" cy="116" r="1" fill="#87CEEB" opacity="0.35"/><circle cx="585" cy="156" r="1" fill="#FFD700" opacity="0.3"/><circle cx="1085" cy="156" r="1" fill="#87CEEB" opacity="0.3"/><circle cx="1585" cy="204" r="1" fill="#FFD700" opacity="0.3"/>
  <!-- Cloud shapes (subtle) -->
  <g opacity="0.1" fill="#87CEEB">
    <ellipse cx="220" cy="80" rx="55" ry="28"/>
    <ellipse cx="260" cy="68" rx="40" ry="24"/>
    <ellipse cx="185" cy="75" rx="35" ry="20"/>
  </g>
  <g opacity="0.08" fill="#87CEEB">
    <ellipse cx="1600" cy="100" rx="70" ry="32"/>
    <ellipse cx="1650" cy="86" rx="50" ry="26"/>
    <ellipse cx="1558" cy="95" rx="42" ry="22"/>
  </g>
  <!-- Dotted flight path arc -->
  <path d="M 200,260 Q 1070,40 1940,220" fill="none" stroke="#87CEEB" stroke-width="1.5" stroke-dasharray="8,10" opacity="0.18"/>
  <!-- Airplane silhouette (along the path, roughly at center) -->
  <g transform="translate(1070,128) rotate(-18)" opacity="0.2">
    <!-- Fuselage -->
    <ellipse cx="0" cy="0" rx="52" ry="10" fill="#4169E1"/>
    <!-- Nose -->
    <ellipse cx="52" cy="0" rx="14" ry="8" fill="#4169E1"/>
    <!-- Main wings -->
    <polygon points="10,-10 -20,-48 -36,-48 -16,-10" fill="#4169E1"/>
    <polygon points="10,10 -20,48 -36,48 -16,10" fill="#4169E1"/>
    <!-- Tail wings -->
    <polygon points="-38,-8 -52,-28 -60,-28 -48,-8" fill="#4169E1"/>
    <polygon points="-38,8 -52,28 -60,28 -48,8" fill="#4169E1"/>
    <!-- Vertical tail -->
    <polygon points="-40,-8 -58,-30 -62,-22 -48,-8" fill="#4169E1"/>
  </g>
  <!-- Small airplane (far right) -->
  <g transform="translate(1950,205) rotate(-15) scale(0.65)" opacity="0.15">
    <ellipse cx="0" cy="0" rx="52" ry="10" fill="#87CEEB"/>
    <ellipse cx="52" cy="0" rx="14" ry="8" fill="#87CEEB"/>
    <polygon points="10,-10 -20,-48 -36,-48 -16,-10" fill="#87CEEB"/>
    <polygon points="10,10 -20,48 -36,48 -16,10" fill="#87CEEB"/>
    <polygon points="-38,-8 -52,-28 -60,-28 -48,-8" fill="#87CEEB"/>
    <polygon points="-38,8 -52,28 -60,28 -48,8" fill="#87CEEB"/>
  </g>
  <!-- Diamond accents -->
  <polygon points="550,165 562,149 574,165 562,181" fill="#4169E1" opacity="0.25"/>
  <polygon points="1300,58 1308,48 1316,58 1308,68" fill="#1E90FF" opacity="0.28"/>
  <polygon points="750,285 758,273 766,285 758,297" fill="#4169E1" opacity="0.2"/>
  <polygon points="1550,292 1558,280 1566,292 1558,304" fill="#1E90FF" opacity="0.18"/>
  <!-- Accent lines -->
  <line x1="0" y1="338" x2="2133" y2="338" stroke="#4169E1" stroke-width="1.5" opacity="0.35"/>
  <line x1="0" y1="2" x2="2133" y2="2" stroke="#4169E1" stroke-width="1" opacity="0.15"/>
</svg>
